<?xml version="1.0" encoding="UTF-8" standalone="no"?>
<!DOCTYPE svg PUBLIC "-//W3C//DTD SVG 1.1//EN"
 "http://www.w3.org/Graphics/SVG/1.1/DTD/svg11.dtd">
<!-- Generated by graphviz version 2.40.1 (20161225.0304)
 -->
<!-- Title: dependencies Pages: 1 -->
<svg width="1324pt" height="284pt"
 viewBox="0.00 0.00 1324.00 284.00" xmlns="http://www.w3.org/2000/svg" xmlns:xlink="http://www.w3.org/1999/xlink">
<g id="graph0" class="graph" transform="scale(1 1) rotate(0) translate(4 280)">
<title>dependencies</title>
<polygon fill="#ffffff" stroke="transparent" points="-4,4 -4,-280 1320,-280 1320,4 -4,4"/>
<text text-anchor="start" x="637.0091" y="-42.4" font-family="sans-serif" font-weight="bold" font-size="14.00" fill="#000000">Legend</text>
<polygon fill="#ffffb3" stroke="transparent" points="424,-10 424,-30 444,-30 444,-10 424,-10"/>
<text text-anchor="start" x="447.629" y="-15.4" font-family="sans-serif" font-size="14.00" fill="#000000"> &#160;Declarations</text>
<polygon fill="#8dd3c7" stroke="transparent" points="537,-10 537,-30 557,-30 557,-10 537,-10"/>
<text text-anchor="start" x="560.7251" y="-15.4" font-family="sans-serif" font-size="14.00" fill="#000000"> &#160;Module</text>
<polygon fill="#80b1d3" stroke="transparent" points="623,-10 623,-30 643,-30 643,-10 623,-10"/>
<text text-anchor="start" x="646.7812" y="-15.4" font-family="sans-serif" font-size="14.00" fill="#000000"> &#160;Bootstrap</text>
<polygon fill="#fdb462" stroke="transparent" points="720,-10 720,-30 740,-30 740,-10 720,-10"/>
<text text-anchor="start" x="743.6732" y="-15.4" font-family="sans-serif" font-size="14.00" fill="#000000"> &#160;Providers</text>
<polygon fill="#fb8072" stroke="transparent" points="816,-10 816,-30 836,-30 836,-10 816,-10"/>
<text text-anchor="start" x="839.7258" y="-15.4" font-family="sans-serif" font-size="14.00" fill="#000000"> &#160;Exports</text>
<g id="clust1" class="cluster">
<title>cluster_AppModule</title>
<polygon fill="none" stroke="#000000" stroke-dasharray="1,5" points="8,-70 8,-268 1308,-268 1308,-70 8,-70"/>
</g>
<g id="clust2" class="cluster">
<title>cluster_AppModule_declarations</title>
<polygon fill="none" stroke="#000000" points="366,-78 366,-130 1300,-130 1300,-78 366,-78"/>
</g>
<g id="clust9" class="cluster">
<title>cluster_AppModule_imports</title>
<polygon fill="none" stroke="#000000" points="250,-78 250,-130 358,-130 358,-78 250,-78"/>
</g>
<g id="clust11" class="cluster">
<title>cluster_AppModule_bootstrap</title>
<polygon fill="none" stroke="#000000" points="628,-208 628,-260 752,-260 752,-208 628,-208"/>
</g>
<g id="clust12" class="cluster">
<title>cluster_AppModule_providers</title>
<polygon fill="none" stroke="#000000" points="16,-78 16,-130 242,-130 242,-78 16,-78"/>
</g>
<!-- AppComponent -->
<g id="node1" class="node">
<title>AppComponent</title>
<polygon fill="#ffffb3" stroke="#000000" points="1291.9399,-122 1186.0601,-122 1186.0601,-86 1291.9399,-86 1291.9399,-122"/>
<text text-anchor="middle" x="1239" y="-99.8" font-family="Times,serif" font-size="14.00" fill="#000000">AppComponent</text>
</g>
<!-- AppModule -->
<g id="node7" class="node">
<title>AppModule</title>
<polygon fill="#8dd3c7" stroke="#000000" points="731.6571,-187 728.6571,-191 707.6571,-191 704.6571,-187 648.3429,-187 648.3429,-151 731.6571,-151 731.6571,-187"/>
<text text-anchor="middle" x="690" y="-164.8" font-family="Times,serif" font-size="14.00" fill="#000000">AppModule</text>
</g>
<!-- AppComponent&#45;&gt;AppModule -->
<g id="edge1" class="edge">
<title>AppComponent&#45;&gt;AppModule</title>
<path fill="none" stroke="#000000" d="M1239,-122.2921C1239,-144.2057 1239,-178 1239,-178 1239,-178 741.7148,-178 741.7148,-178"/>
<polygon fill="#000000" stroke="#000000" points="741.7149,-174.5001 731.7148,-178 741.7148,-181.5001 741.7149,-174.5001"/>
</g>
<!-- AccueilComponent -->
<g id="node2" class="node">
<title>AccueilComponent</title>
<polygon fill="#ffffb3" stroke="#000000" points="1168.3641,-122 1043.6359,-122 1043.6359,-86 1168.3641,-86 1168.3641,-122"/>
<text text-anchor="middle" x="1106" y="-99.8" font-family="Times,serif" font-size="14.00" fill="#000000">AccueilComponent</text>
</g>
<!-- AccueilComponent&#45;&gt;AppModule -->
<g id="edge2" class="edge">
<title>AccueilComponent&#45;&gt;AppModule</title>
<path fill="none" stroke="#000000" d="M1106,-122.1061C1106,-141.3391 1106,-169 1106,-169 1106,-169 741.7924,-169 741.7924,-169"/>
<polygon fill="#000000" stroke="#000000" points="741.7924,-165.5001 731.7924,-169 741.7923,-172.5001 741.7924,-165.5001"/>
</g>
<!-- PageNotFoundComponent -->
<g id="node3" class="node">
<title>PageNotFoundComponent</title>
<polygon fill="#ffffb3" stroke="#000000" points="1025.8243,-122 860.1757,-122 860.1757,-86 1025.8243,-86 1025.8243,-122"/>
<text text-anchor="middle" x="943" y="-99.8" font-family="Times,serif" font-size="14.00" fill="#000000">PageNotFoundComponent</text>
</g>
<!-- PageNotFoundComponent&#45;&gt;AppModule -->
<g id="edge3" class="edge">
<title>PageNotFoundComponent&#45;&gt;AppModule</title>
<path fill="none" stroke="#000000" d="M943,-122.027C943,-138.3976 943,-160 943,-160 943,-160 741.7778,-160 741.7778,-160"/>
<polygon fill="#000000" stroke="#000000" points="741.7778,-156.5001 731.7778,-160 741.7778,-163.5001 741.7778,-156.5001"/>
</g>
<!-- MonumentComponent -->
<g id="node4" class="node">
<title>MonumentComponent</title>
<polygon fill="#ffffb3" stroke="#000000" points="842.273,-122 699.727,-122 699.727,-86 842.273,-86 842.273,-122"/>
<text text-anchor="middle" x="771" y="-99.8" font-family="Times,serif" font-size="14.00" fill="#000000">MonumentComponent</text>
</g>
<!-- MonumentComponent&#45;&gt;AppModule -->
<g id="edge4" class="edge">
<title>MonumentComponent&#45;&gt;AppModule</title>
<path fill="none" stroke="#000000" d="M715.7209,-122.1061C715.7209,-122.1061 715.7209,-140.991 715.7209,-140.991"/>
<polygon fill="#000000" stroke="#000000" points="712.221,-140.9909 715.7209,-150.991 719.221,-140.991 712.221,-140.9909"/>
</g>
<!-- StatistiquesComponent -->
<g id="node5" class="node">
<title>StatistiquesComponent</title>
<polygon fill="#ffffb3" stroke="#000000" points="681.8864,-122 536.1136,-122 536.1136,-86 681.8864,-86 681.8864,-122"/>
<text text-anchor="middle" x="609" y="-99.8" font-family="Times,serif" font-size="14.00" fill="#000000">StatistiquesComponent</text>
</g>
<!-- StatistiquesComponent&#45;&gt;AppModule -->
<g id="edge5" class="edge">
<title>StatistiquesComponent&#45;&gt;AppModule</title>
<path fill="none" stroke="#000000" d="M665.0575,-122.1061C665.0575,-122.1061 665.0575,-140.991 665.0575,-140.991"/>
<polygon fill="#000000" stroke="#000000" points="661.5576,-140.9909 665.0575,-150.991 668.5576,-140.991 661.5576,-140.9909"/>
</g>
<!-- NavigationComponent -->
<g id="node6" class="node">
<title>NavigationComponent</title>
<polygon fill="#ffffb3" stroke="#000000" points="517.5407,-122 374.4593,-122 374.4593,-86 517.5407,-86 517.5407,-122"/>
<text text-anchor="middle" x="446" y="-99.8" font-family="Times,serif" font-size="14.00" fill="#000000">NavigationComponent</text>
</g>
<!-- NavigationComponent&#45;&gt;AppModule -->
<g id="edge6" class="edge">
<title>NavigationComponent&#45;&gt;AppModule</title>
<path fill="none" stroke="#000000" d="M446,-122.027C446,-138.3976 446,-160 446,-160 446,-160 638.3321,-160 638.3321,-160"/>
<polygon fill="#000000" stroke="#000000" points="638.3322,-163.5001 648.3321,-160 638.3321,-156.5001 638.3322,-163.5001"/>
</g>
<!-- AppComponent  -->
<g id="node9" class="node">
<title>AppComponent </title>
<polygon fill="#80b1d3" stroke="#000000" points="744.439,-252 635.561,-252 635.561,-216 744.439,-216 744.439,-252"/>
<text text-anchor="middle" x="690" y="-229.8" font-family="Times,serif" font-size="14.00" fill="#000000">AppComponent </text>
</g>
<!-- AppModule&#45;&gt;AppComponent  -->
<g id="edge8" class="edge">
<title>AppModule&#45;&gt;AppComponent </title>
<path fill="none" stroke="#000000" stroke-dasharray="1,5" d="M690,-187.1061C690,-187.1061 690,-205.991 690,-205.991"/>
<polygon fill="#000000" stroke="#000000" points="686.5001,-205.9909 690,-215.991 693.5001,-205.991 686.5001,-205.9909"/>
</g>
<!-- RouteModule -->
<g id="node8" class="node">
<title>RouteModule</title>
<polygon fill="#8dd3c7" stroke="#000000" points="350.4916,-122 347.4916,-126 326.4916,-126 323.4916,-122 257.5084,-122 257.5084,-86 350.4916,-86 350.4916,-122"/>
<text text-anchor="middle" x="304" y="-99.8" font-family="Times,serif" font-size="14.00" fill="#000000">RouteModule</text>
</g>
<!-- RouteModule&#45;&gt;AppModule -->
<g id="edge7" class="edge">
<title>RouteModule&#45;&gt;AppModule</title>
<path fill="none" stroke="#000000" d="M304,-122.1061C304,-141.3391 304,-169 304,-169 304,-169 638.3245,-169 638.3245,-169"/>
<polygon fill="#000000" stroke="#000000" points="638.3245,-172.5001 648.3245,-169 638.3245,-165.5001 638.3245,-172.5001"/>
</g>
<!-- InfosMonumenttService -->
<g id="node10" class="node">
<title>InfosMonumenttService</title>
<ellipse fill="#fdb462" stroke="#000000" cx="129" cy="-104" rx="104.7964" ry="18"/>
<text text-anchor="middle" x="129" y="-99.8" font-family="Times,serif" font-size="14.00" fill="#000000">InfosMonumenttService</text>
</g>
<!-- InfosMonumenttService&#45;&gt;AppModule -->
<g id="edge9" class="edge">
<title>InfosMonumenttService&#45;&gt;AppModule</title>
<path fill="none" stroke="#000000" d="M129,-122.2921C129,-144.2057 129,-178 129,-178 129,-178 638.2921,-178 638.2921,-178"/>
<polygon fill="#000000" stroke="#000000" points="638.2922,-181.5001 648.2921,-178 638.2921,-174.5001 638.2922,-181.5001"/>
</g>
</g>
</svg>
