<?xml version="1.0" encoding="UTF-8" standalone="no"?>
<!DOCTYPE svg PUBLIC "-//W3C//DTD SVG 1.1//EN"
 "http://www.w3.org/Graphics/SVG/1.1/DTD/svg11.dtd">
<!-- Generated by graphviz version 2.40.1 (20161225.0304)
 -->
<!-- Title: dependencies Pages: 1 -->
<svg width="882pt" height="284pt"
 viewBox="0.00 0.00 882.00 284.00" xmlns="http://www.w3.org/2000/svg" xmlns:xlink="http://www.w3.org/1999/xlink">
<g id="graph0" class="graph" transform="scale(1 1) rotate(0) translate(4 280)">
<title>dependencies</title>
<polygon fill="#ffffff" stroke="transparent" points="-4,4 -4,-280 878,-280 878,4 -4,4"/>
<text text-anchor="start" x="416.0091" y="-42.4" font-family="sans-serif" font-weight="bold" font-size="14.00" fill="#000000">Legend</text>
<polygon fill="#ffffb3" stroke="transparent" points="203,-10 203,-30 223,-30 223,-10 203,-10"/>
<text text-anchor="start" x="226.629" y="-15.4" font-family="sans-serif" font-size="14.00" fill="#000000"> &#160;Declarations</text>
<polygon fill="#8dd3c7" stroke="transparent" points="316,-10 316,-30 336,-30 336,-10 316,-10"/>
<text text-anchor="start" x="339.7251" y="-15.4" font-family="sans-serif" font-size="14.00" fill="#000000"> &#160;Module</text>
<polygon fill="#80b1d3" stroke="transparent" points="402,-10 402,-30 422,-30 422,-10 402,-10"/>
<text text-anchor="start" x="425.7812" y="-15.4" font-family="sans-serif" font-size="14.00" fill="#000000"> &#160;Bootstrap</text>
<polygon fill="#fdb462" stroke="transparent" points="499,-10 499,-30 519,-30 519,-10 499,-10"/>
<text text-anchor="start" x="522.6732" y="-15.4" font-family="sans-serif" font-size="14.00" fill="#000000"> &#160;Providers</text>
<polygon fill="#fb8072" stroke="transparent" points="595,-10 595,-30 615,-30 615,-10 595,-10"/>
<text text-anchor="start" x="618.7258" y="-15.4" font-family="sans-serif" font-size="14.00" fill="#000000"> &#160;Exports</text>
<g id="clust1" class="cluster">
<title>cluster_AppModule</title>
<polygon fill="none" stroke="#000000" stroke-dasharray="1,5" points="8,-70 8,-268 866,-268 866,-70 8,-70"/>
</g>
<g id="clust2" class="cluster">
<title>cluster_AppModule_declarations</title>
<polygon fill="none" stroke="#000000" points="250,-78 250,-130 858,-130 858,-78 250,-78"/>
</g>
<g id="clust9" class="cluster">
<title>cluster_AppModule_bootstrap</title>
<polygon fill="none" stroke="#000000" points="439,-208 439,-260 563,-260 563,-208 439,-208"/>
</g>
<g id="clust10" class="cluster">
<title>cluster_AppModule_providers</title>
<polygon fill="none" stroke="#000000" points="16,-78 16,-130 242,-130 242,-78 16,-78"/>
</g>
<!-- AppComponent -->
<g id="node1" class="node">
<title>AppComponent</title>
<polygon fill="#ffffb3" stroke="#000000" points="849.9399,-122 744.0601,-122 744.0601,-86 849.9399,-86 849.9399,-122"/>
<text text-anchor="middle" x="797" y="-99.8" font-family="Times,serif" font-size="14.00" fill="#000000">AppComponent</text>
</g>
<!-- AppModule -->
<g id="node5" class="node">
<title>AppModule</title>
<polygon fill="#8dd3c7" stroke="#000000" points="542.6571,-187 539.6571,-191 518.6571,-191 515.6571,-187 459.3429,-187 459.3429,-151 542.6571,-151 542.6571,-187"/>
<text text-anchor="middle" x="501" y="-164.8" font-family="Times,serif" font-size="14.00" fill="#000000">AppModule</text>
</g>
<!-- AppComponent&#45;&gt;AppModule -->
<g id="edge1" class="edge">
<title>AppComponent&#45;&gt;AppModule</title>
<path fill="none" stroke="#000000" d="M797,-122.2843C797,-143.3211 797,-175 797,-175 797,-175 552.7818,-175 552.7818,-175"/>
<polygon fill="#000000" stroke="#000000" points="552.7818,-171.5001 542.7818,-175 552.7817,-178.5001 552.7818,-171.5001"/>
</g>
<!-- AccueilComponent -->
<g id="node2" class="node">
<title>AccueilComponent</title>
<polygon fill="#ffffb3" stroke="#000000" points="726.3641,-122 601.6359,-122 601.6359,-86 726.3641,-86 726.3641,-122"/>
<text text-anchor="middle" x="664" y="-99.8" font-family="Times,serif" font-size="14.00" fill="#000000">AccueilComponent</text>
</g>
<!-- AccueilComponent&#45;&gt;AppModule -->
<g id="edge2" class="edge">
<title>AccueilComponent&#45;&gt;AppModule</title>
<path fill="none" stroke="#000000" d="M664,-122.0225C664,-139.3734 664,-163 664,-163 664,-163 552.9766,-163 552.9766,-163"/>
<polygon fill="#000000" stroke="#000000" points="552.9766,-159.5001 542.9766,-163 552.9765,-166.5001 552.9766,-159.5001"/>
</g>
<!-- PageNotFoundComponent -->
<g id="node3" class="node">
<title>PageNotFoundComponent</title>
<polygon fill="#ffffb3" stroke="#000000" points="583.8243,-122 418.1757,-122 418.1757,-86 583.8243,-86 583.8243,-122"/>
<text text-anchor="middle" x="501" y="-99.8" font-family="Times,serif" font-size="14.00" fill="#000000">PageNotFoundComponent</text>
</g>
<!-- PageNotFoundComponent&#45;&gt;AppModule -->
<g id="edge3" class="edge">
<title>PageNotFoundComponent&#45;&gt;AppModule</title>
<path fill="none" stroke="#000000" d="M501,-122.1061C501,-122.1061 501,-140.991 501,-140.991"/>
<polygon fill="#000000" stroke="#000000" points="497.5001,-140.9909 501,-150.991 504.5001,-140.991 497.5001,-140.9909"/>
</g>
<!-- MonumentComponent -->
<g id="node4" class="node">
<title>MonumentComponent</title>
<polygon fill="#ffffb3" stroke="#000000" points="400.273,-122 257.727,-122 257.727,-86 400.273,-86 400.273,-122"/>
<text text-anchor="middle" x="329" y="-99.8" font-family="Times,serif" font-size="14.00" fill="#000000">MonumentComponent</text>
</g>
<!-- MonumentComponent&#45;&gt;AppModule -->
<g id="edge4" class="edge">
<title>MonumentComponent&#45;&gt;AppModule</title>
<path fill="none" stroke="#000000" d="M329,-122.0225C329,-139.3734 329,-163 329,-163 329,-163 448.9241,-163 448.9241,-163"/>
<polygon fill="#000000" stroke="#000000" points="448.9241,-166.5001 458.9241,-163 448.924,-159.5001 448.9241,-166.5001"/>
</g>
<!-- AppComponent  -->
<g id="node6" class="node">
<title>AppComponent </title>
<polygon fill="#80b1d3" stroke="#000000" points="555.439,-252 446.561,-252 446.561,-216 555.439,-216 555.439,-252"/>
<text text-anchor="middle" x="501" y="-229.8" font-family="Times,serif" font-size="14.00" fill="#000000">AppComponent </text>
</g>
<!-- AppModule&#45;&gt;AppComponent  -->
<g id="edge5" class="edge">
<title>AppModule&#45;&gt;AppComponent </title>
<path fill="none" stroke="#000000" stroke-dasharray="1,5" d="M501,-187.1061C501,-187.1061 501,-205.991 501,-205.991"/>
<polygon fill="#000000" stroke="#000000" points="497.5001,-205.9909 501,-215.991 504.5001,-205.991 497.5001,-205.9909"/>
</g>
<!-- InfosMonumenttService -->
<g id="node7" class="node">
<title>InfosMonumenttService</title>
<ellipse fill="#fdb462" stroke="#000000" cx="129" cy="-104" rx="104.7964" ry="18"/>
<text text-anchor="middle" x="129" y="-99.8" font-family="Times,serif" font-size="14.00" fill="#000000">InfosMonumenttService</text>
</g>
<!-- InfosMonumenttService&#45;&gt;AppModule -->
<g id="edge6" class="edge">
<title>InfosMonumenttService&#45;&gt;AppModule</title>
<path fill="none" stroke="#000000" d="M129,-122.2843C129,-143.3211 129,-175 129,-175 129,-175 449.05,-175 449.05,-175"/>
<polygon fill="#000000" stroke="#000000" points="449.05,-178.5001 459.05,-175 449.05,-171.5001 449.05,-178.5001"/>
</g>
</g>
</svg>
