<?xml version="1.0" encoding="UTF-8" standalone="no"?>
<!DOCTYPE svg PUBLIC "-//W3C//DTD SVG 1.1//EN"
 "http://www.w3.org/Graphics/SVG/1.1/DTD/svg11.dtd">
<!-- Generated by graphviz version 2.40.1 (20161225.0304)
 -->
<!-- Title: dependencies Pages: 1 -->
<svg width="1046pt" height="284pt"
 viewBox="0.00 0.00 1046.00 284.00" xmlns="http://www.w3.org/2000/svg" xmlns:xlink="http://www.w3.org/1999/xlink">
<g id="graph0" class="graph" transform="scale(1 1) rotate(0) translate(4 280)">
<title>dependencies</title>
<polygon fill="#ffffff" stroke="transparent" points="-4,4 -4,-280 1042,-280 1042,4 -4,4"/>
<text text-anchor="start" x="498.0091" y="-42.4" font-family="sans-serif" font-weight="bold" font-size="14.00" fill="#000000">Legend</text>
<polygon fill="#ffffb3" stroke="transparent" points="285,-10 285,-30 305,-30 305,-10 285,-10"/>
<text text-anchor="start" x="308.629" y="-15.4" font-family="sans-serif" font-size="14.00" fill="#000000"> &#160;Declarations</text>
<polygon fill="#8dd3c7" stroke="transparent" points="398,-10 398,-30 418,-30 418,-10 398,-10"/>
<text text-anchor="start" x="421.7251" y="-15.4" font-family="sans-serif" font-size="14.00" fill="#000000"> &#160;Module</text>
<polygon fill="#80b1d3" stroke="transparent" points="484,-10 484,-30 504,-30 504,-10 484,-10"/>
<text text-anchor="start" x="507.7812" y="-15.4" font-family="sans-serif" font-size="14.00" fill="#000000"> &#160;Bootstrap</text>
<polygon fill="#fdb462" stroke="transparent" points="581,-10 581,-30 601,-30 601,-10 581,-10"/>
<text text-anchor="start" x="604.6732" y="-15.4" font-family="sans-serif" font-size="14.00" fill="#000000"> &#160;Providers</text>
<polygon fill="#fb8072" stroke="transparent" points="677,-10 677,-30 697,-30 697,-10 677,-10"/>
<text text-anchor="start" x="700.7258" y="-15.4" font-family="sans-serif" font-size="14.00" fill="#000000"> &#160;Exports</text>
<g id="clust1" class="cluster">
<title>cluster_AppModule</title>
<polygon fill="none" stroke="#000000" stroke-dasharray="1,5" points="8,-70 8,-268 1030,-268 1030,-70 8,-70"/>
</g>
<g id="clust2" class="cluster">
<title>cluster_AppModule_declarations</title>
<polygon fill="none" stroke="#000000" points="250,-78 250,-130 1022,-130 1022,-78 250,-78"/>
</g>
<g id="clust10" class="cluster">
<title>cluster_AppModule_bootstrap</title>
<polygon fill="none" stroke="#000000" points="517,-208 517,-260 641,-260 641,-208 517,-208"/>
</g>
<g id="clust11" class="cluster">
<title>cluster_AppModule_providers</title>
<polygon fill="none" stroke="#000000" points="16,-78 16,-130 242,-130 242,-78 16,-78"/>
</g>
<!-- AppComponent -->
<g id="node1" class="node">
<title>AppComponent</title>
<polygon fill="#ffffb3" stroke="#000000" points="1013.9399,-122 908.0601,-122 908.0601,-86 1013.9399,-86 1013.9399,-122"/>
<text text-anchor="middle" x="961" y="-99.8" font-family="Times,serif" font-size="14.00" fill="#000000">AppComponent</text>
</g>
<!-- AppModule -->
<g id="node6" class="node">
<title>AppModule</title>
<polygon fill="#8dd3c7" stroke="#000000" points="620.6571,-187 617.6571,-191 596.6571,-191 593.6571,-187 537.3429,-187 537.3429,-151 620.6571,-151 620.6571,-187"/>
<text text-anchor="middle" x="579" y="-164.8" font-family="Times,serif" font-size="14.00" fill="#000000">AppModule</text>
</g>
<!-- AppComponent&#45;&gt;AppModule -->
<g id="edge1" class="edge">
<title>AppComponent&#45;&gt;AppModule</title>
<path fill="none" stroke="#000000" d="M961,-122.2843C961,-143.3211 961,-175 961,-175 961,-175 630.9734,-175 630.9734,-175"/>
<polygon fill="#000000" stroke="#000000" points="630.9734,-171.5001 620.9734,-175 630.9734,-178.5001 630.9734,-171.5001"/>
</g>
<!-- AccueilComponent -->
<g id="node2" class="node">
<title>AccueilComponent</title>
<polygon fill="#ffffb3" stroke="#000000" points="890.3641,-122 765.6359,-122 765.6359,-86 890.3641,-86 890.3641,-122"/>
<text text-anchor="middle" x="828" y="-99.8" font-family="Times,serif" font-size="14.00" fill="#000000">AccueilComponent</text>
</g>
<!-- AccueilComponent&#45;&gt;AppModule -->
<g id="edge2" class="edge">
<title>AccueilComponent&#45;&gt;AppModule</title>
<path fill="none" stroke="#000000" d="M828,-122.0225C828,-139.3734 828,-163 828,-163 828,-163 630.677,-163 630.677,-163"/>
<polygon fill="#000000" stroke="#000000" points="630.677,-159.5001 620.677,-163 630.677,-166.5001 630.677,-159.5001"/>
</g>
<!-- PageNotFoundComponent -->
<g id="node3" class="node">
<title>PageNotFoundComponent</title>
<polygon fill="#ffffb3" stroke="#000000" points="747.8243,-122 582.1757,-122 582.1757,-86 747.8243,-86 747.8243,-122"/>
<text text-anchor="middle" x="665" y="-99.8" font-family="Times,serif" font-size="14.00" fill="#000000">PageNotFoundComponent</text>
</g>
<!-- PageNotFoundComponent&#45;&gt;AppModule -->
<g id="edge3" class="edge">
<title>PageNotFoundComponent&#45;&gt;AppModule</title>
<path fill="none" stroke="#000000" d="M601.5831,-122.1061C601.5831,-122.1061 601.5831,-140.991 601.5831,-140.991"/>
<polygon fill="#000000" stroke="#000000" points="598.0832,-140.9909 601.5831,-150.991 605.0832,-140.991 598.0832,-140.9909"/>
</g>
<!-- MonumentComponent -->
<g id="node4" class="node">
<title>MonumentComponent</title>
<polygon fill="#ffffb3" stroke="#000000" points="564.273,-122 421.727,-122 421.727,-86 564.273,-86 564.273,-122"/>
<text text-anchor="middle" x="493" y="-99.8" font-family="Times,serif" font-size="14.00" fill="#000000">MonumentComponent</text>
</g>
<!-- MonumentComponent&#45;&gt;AppModule -->
<g id="edge4" class="edge">
<title>MonumentComponent&#45;&gt;AppModule</title>
<path fill="none" stroke="#000000" d="M550.7791,-122.1061C550.7791,-122.1061 550.7791,-140.991 550.7791,-140.991"/>
<polygon fill="#000000" stroke="#000000" points="547.2792,-140.9909 550.7791,-150.991 554.2792,-140.991 547.2792,-140.9909"/>
</g>
<!-- StatistiquesComponent -->
<g id="node5" class="node">
<title>StatistiquesComponent</title>
<polygon fill="#ffffb3" stroke="#000000" points="403.8864,-122 258.1136,-122 258.1136,-86 403.8864,-86 403.8864,-122"/>
<text text-anchor="middle" x="331" y="-99.8" font-family="Times,serif" font-size="14.00" fill="#000000">StatistiquesComponent</text>
</g>
<!-- StatistiquesComponent&#45;&gt;AppModule -->
<g id="edge5" class="edge">
<title>StatistiquesComponent&#45;&gt;AppModule</title>
<path fill="none" stroke="#000000" d="M331,-122.0225C331,-139.3734 331,-163 331,-163 331,-163 527.2106,-163 527.2106,-163"/>
<polygon fill="#000000" stroke="#000000" points="527.2107,-166.5001 537.2106,-163 527.2106,-159.5001 527.2107,-166.5001"/>
</g>
<!-- AppComponent  -->
<g id="node7" class="node">
<title>AppComponent </title>
<polygon fill="#80b1d3" stroke="#000000" points="633.439,-252 524.561,-252 524.561,-216 633.439,-216 633.439,-252"/>
<text text-anchor="middle" x="579" y="-229.8" font-family="Times,serif" font-size="14.00" fill="#000000">AppComponent </text>
</g>
<!-- AppModule&#45;&gt;AppComponent  -->
<g id="edge6" class="edge">
<title>AppModule&#45;&gt;AppComponent </title>
<path fill="none" stroke="#000000" stroke-dasharray="1,5" d="M579,-187.1061C579,-187.1061 579,-205.991 579,-205.991"/>
<polygon fill="#000000" stroke="#000000" points="575.5001,-205.9909 579,-215.991 582.5001,-205.991 575.5001,-205.9909"/>
</g>
<!-- InfosMonumenttService -->
<g id="node8" class="node">
<title>InfosMonumenttService</title>
<ellipse fill="#fdb462" stroke="#000000" cx="129" cy="-104" rx="104.7964" ry="18"/>
<text text-anchor="middle" x="129" y="-99.8" font-family="Times,serif" font-size="14.00" fill="#000000">InfosMonumenttService</text>
</g>
<!-- InfosMonumenttService&#45;&gt;AppModule -->
<g id="edge7" class="edge">
<title>InfosMonumenttService&#45;&gt;AppModule</title>
<path fill="none" stroke="#000000" d="M129,-122.2843C129,-143.3211 129,-175 129,-175 129,-175 527.0692,-175 527.0692,-175"/>
<polygon fill="#000000" stroke="#000000" points="527.0692,-178.5001 537.0692,-175 527.0692,-171.5001 527.0692,-178.5001"/>
</g>
</g>
</svg>
