<?xml version="1.0" encoding="UTF-8" standalone="no"?>
<!DOCTYPE svg PUBLIC "-//W3C//DTD SVG 1.1//EN"
 "http://www.w3.org/Graphics/SVG/1.1/DTD/svg11.dtd">
<!-- Generated by graphviz version 2.40.1 (20161225.0304)
 -->
<!-- Title: dependencies Pages: 1 -->
<svg width="1208pt" height="284pt"
 viewBox="0.00 0.00 1208.00 284.00" xmlns="http://www.w3.org/2000/svg" xmlns:xlink="http://www.w3.org/1999/xlink">
<g id="graph0" class="graph" transform="scale(1 1) rotate(0) translate(4 280)">
<title>dependencies</title>
<polygon fill="#ffffff" stroke="transparent" points="-4,4 -4,-280 1204,-280 1204,4 -4,4"/>
<text text-anchor="start" x="579.0091" y="-42.4" font-family="sans-serif" font-weight="bold" font-size="14.00" fill="#000000">Legend</text>
<polygon fill="#ffffb3" stroke="transparent" points="366,-10 366,-30 386,-30 386,-10 366,-10"/>
<text text-anchor="start" x="389.629" y="-15.4" font-family="sans-serif" font-size="14.00" fill="#000000"> &#160;Declarations</text>
<polygon fill="#8dd3c7" stroke="transparent" points="479,-10 479,-30 499,-30 499,-10 479,-10"/>
<text text-anchor="start" x="502.7251" y="-15.4" font-family="sans-serif" font-size="14.00" fill="#000000"> &#160;Module</text>
<polygon fill="#80b1d3" stroke="transparent" points="565,-10 565,-30 585,-30 585,-10 565,-10"/>
<text text-anchor="start" x="588.7812" y="-15.4" font-family="sans-serif" font-size="14.00" fill="#000000"> &#160;Bootstrap</text>
<polygon fill="#fdb462" stroke="transparent" points="662,-10 662,-30 682,-30 682,-10 662,-10"/>
<text text-anchor="start" x="685.6732" y="-15.4" font-family="sans-serif" font-size="14.00" fill="#000000"> &#160;Providers</text>
<polygon fill="#fb8072" stroke="transparent" points="758,-10 758,-30 778,-30 778,-10 758,-10"/>
<text text-anchor="start" x="781.7258" y="-15.4" font-family="sans-serif" font-size="14.00" fill="#000000"> &#160;Exports</text>
<g id="clust1" class="cluster">
<title>cluster_AppModule</title>
<polygon fill="none" stroke="#000000" stroke-dasharray="1,5" points="8,-70 8,-268 1192,-268 1192,-70 8,-70"/>
</g>
<g id="clust2" class="cluster">
<title>cluster_AppModule_declarations</title>
<polygon fill="none" stroke="#000000" points="250,-78 250,-130 1184,-130 1184,-78 250,-78"/>
</g>
<g id="clust11" class="cluster">
<title>cluster_AppModule_bootstrap</title>
<polygon fill="none" stroke="#000000" points="593,-208 593,-260 717,-260 717,-208 593,-208"/>
</g>
<g id="clust12" class="cluster">
<title>cluster_AppModule_providers</title>
<polygon fill="none" stroke="#000000" points="16,-78 16,-130 242,-130 242,-78 16,-78"/>
</g>
<!-- AppComponent -->
<g id="node1" class="node">
<title>AppComponent</title>
<polygon fill="#ffffb3" stroke="#000000" points="1175.9399,-122 1070.0601,-122 1070.0601,-86 1175.9399,-86 1175.9399,-122"/>
<text text-anchor="middle" x="1123" y="-99.8" font-family="Times,serif" font-size="14.00" fill="#000000">AppComponent</text>
</g>
<!-- AppModule -->
<g id="node7" class="node">
<title>AppModule</title>
<polygon fill="#8dd3c7" stroke="#000000" points="696.6571,-187 693.6571,-191 672.6571,-191 669.6571,-187 613.3429,-187 613.3429,-151 696.6571,-151 696.6571,-187"/>
<text text-anchor="middle" x="655" y="-164.8" font-family="Times,serif" font-size="14.00" fill="#000000">AppModule</text>
</g>
<!-- AppComponent&#45;&gt;AppModule -->
<g id="edge1" class="edge">
<title>AppComponent&#45;&gt;AppModule</title>
<path fill="none" stroke="#000000" d="M1123,-122.2921C1123,-144.2057 1123,-178 1123,-178 1123,-178 706.9437,-178 706.9437,-178"/>
<polygon fill="#000000" stroke="#000000" points="706.9438,-174.5001 696.9437,-178 706.9437,-181.5001 706.9438,-174.5001"/>
</g>
<!-- AccueilComponent -->
<g id="node2" class="node">
<title>AccueilComponent</title>
<polygon fill="#ffffb3" stroke="#000000" points="1052.3641,-122 927.6359,-122 927.6359,-86 1052.3641,-86 1052.3641,-122"/>
<text text-anchor="middle" x="990" y="-99.8" font-family="Times,serif" font-size="14.00" fill="#000000">AccueilComponent</text>
</g>
<!-- AccueilComponent&#45;&gt;AppModule -->
<g id="edge2" class="edge">
<title>AccueilComponent&#45;&gt;AppModule</title>
<path fill="none" stroke="#000000" d="M990,-122.1061C990,-141.3391 990,-169 990,-169 990,-169 706.7506,-169 706.7506,-169"/>
<polygon fill="#000000" stroke="#000000" points="706.7507,-165.5001 696.7506,-169 706.7506,-172.5001 706.7507,-165.5001"/>
</g>
<!-- PageNotFoundComponent -->
<g id="node3" class="node">
<title>PageNotFoundComponent</title>
<polygon fill="#ffffb3" stroke="#000000" points="909.8243,-122 744.1757,-122 744.1757,-86 909.8243,-86 909.8243,-122"/>
<text text-anchor="middle" x="827" y="-99.8" font-family="Times,serif" font-size="14.00" fill="#000000">PageNotFoundComponent</text>
</g>
<!-- PageNotFoundComponent&#45;&gt;AppModule -->
<g id="edge3" class="edge">
<title>PageNotFoundComponent&#45;&gt;AppModule</title>
<path fill="none" stroke="#000000" d="M827,-122.027C827,-138.3976 827,-160 827,-160 827,-160 707.0759,-160 707.0759,-160"/>
<polygon fill="#000000" stroke="#000000" points="707.076,-156.5001 697.0759,-160 707.0759,-163.5001 707.076,-156.5001"/>
</g>
<!-- MonumentComponent -->
<g id="node4" class="node">
<title>MonumentComponent</title>
<polygon fill="#ffffb3" stroke="#000000" points="726.273,-122 583.727,-122 583.727,-86 726.273,-86 726.273,-122"/>
<text text-anchor="middle" x="655" y="-99.8" font-family="Times,serif" font-size="14.00" fill="#000000">MonumentComponent</text>
</g>
<!-- MonumentComponent&#45;&gt;AppModule -->
<g id="edge4" class="edge">
<title>MonumentComponent&#45;&gt;AppModule</title>
<path fill="none" stroke="#000000" d="M655,-122.1061C655,-122.1061 655,-140.991 655,-140.991"/>
<polygon fill="#000000" stroke="#000000" points="651.5001,-140.9909 655,-150.991 658.5001,-140.991 651.5001,-140.9909"/>
</g>
<!-- StatistiquesComponent -->
<g id="node5" class="node">
<title>StatistiquesComponent</title>
<polygon fill="#ffffb3" stroke="#000000" points="565.8864,-122 420.1136,-122 420.1136,-86 565.8864,-86 565.8864,-122"/>
<text text-anchor="middle" x="493" y="-99.8" font-family="Times,serif" font-size="14.00" fill="#000000">StatistiquesComponent</text>
</g>
<!-- StatistiquesComponent&#45;&gt;AppModule -->
<g id="edge5" class="edge">
<title>StatistiquesComponent&#45;&gt;AppModule</title>
<path fill="none" stroke="#000000" d="M493,-122.027C493,-138.3976 493,-160 493,-160 493,-160 603.281,-160 603.281,-160"/>
<polygon fill="#000000" stroke="#000000" points="603.281,-163.5001 613.281,-160 603.2809,-156.5001 603.281,-163.5001"/>
</g>
<!-- NavigationComponent -->
<g id="node6" class="node">
<title>NavigationComponent</title>
<polygon fill="#ffffb3" stroke="#000000" points="401.5407,-122 258.4593,-122 258.4593,-86 401.5407,-86 401.5407,-122"/>
<text text-anchor="middle" x="330" y="-99.8" font-family="Times,serif" font-size="14.00" fill="#000000">NavigationComponent</text>
</g>
<!-- NavigationComponent&#45;&gt;AppModule -->
<g id="edge6" class="edge">
<title>NavigationComponent&#45;&gt;AppModule</title>
<path fill="none" stroke="#000000" d="M330,-122.1061C330,-141.3391 330,-169 330,-169 330,-169 603.1773,-169 603.1773,-169"/>
<polygon fill="#000000" stroke="#000000" points="603.1773,-172.5001 613.1773,-169 603.1772,-165.5001 603.1773,-172.5001"/>
</g>
<!-- AppComponent  -->
<g id="node8" class="node">
<title>AppComponent </title>
<polygon fill="#80b1d3" stroke="#000000" points="709.439,-252 600.561,-252 600.561,-216 709.439,-216 709.439,-252"/>
<text text-anchor="middle" x="655" y="-229.8" font-family="Times,serif" font-size="14.00" fill="#000000">AppComponent </text>
</g>
<!-- AppModule&#45;&gt;AppComponent  -->
<g id="edge7" class="edge">
<title>AppModule&#45;&gt;AppComponent </title>
<path fill="none" stroke="#000000" stroke-dasharray="1,5" d="M655,-187.1061C655,-187.1061 655,-205.991 655,-205.991"/>
<polygon fill="#000000" stroke="#000000" points="651.5001,-205.9909 655,-215.991 658.5001,-205.991 651.5001,-205.9909"/>
</g>
<!-- InfosMonumenttService -->
<g id="node9" class="node">
<title>InfosMonumenttService</title>
<ellipse fill="#fdb462" stroke="#000000" cx="129" cy="-104" rx="104.7964" ry="18"/>
<text text-anchor="middle" x="129" y="-99.8" font-family="Times,serif" font-size="14.00" fill="#000000">InfosMonumenttService</text>
</g>
<!-- InfosMonumenttService&#45;&gt;AppModule -->
<g id="edge8" class="edge">
<title>InfosMonumenttService&#45;&gt;AppModule</title>
<path fill="none" stroke="#000000" d="M129,-122.2921C129,-144.2057 129,-178 129,-178 129,-178 603.286,-178 603.286,-178"/>
<polygon fill="#000000" stroke="#000000" points="603.286,-181.5001 613.286,-178 603.286,-174.5001 603.286,-181.5001"/>
</g>
</g>
</svg>
